<?xml version="1.0" standalone="no"?>
<!DOCTYPE svg PUBLIC "-//W3C//DTD SVG 20010904//EN"
 "http://www.w3.org/TR/2001/REC-SVG-20010904/DTD/svg10.dtd">
<svg version="1.0" xmlns="http://www.w3.org/2000/svg"
 width="230.000000pt" height="230.000000pt" viewBox="0 0 230.000000 230.000000"
 preserveAspectRatio="xMidYMid meet">
<metadata>
Created by potrace 1.14, written by Peter Selinger 2001-2017
</metadata>
<g transform="translate(0.000000,230.000000) scale(0.100000,-0.100000)"
fill="#000000" stroke="none">
<path d="M1048 2115 c-2 -1 -30 -5 -63 -9 -65 -6 -112 -14 -133 -21 -8 -3 -35
2 -60 11 -53 17 -114 14 -160 -10 -32 -17 -82 -71 -82 -89 0 -7 -3 -22 -6 -34
-6 -21 -4 -22 22 -13 16 6 52 21 79 35 28 13 51 20 53 15 2 -5 10 -6 18 -3 8
3 14 0 14 -7 0 -6 4 -9 9 -6 4 3 15 0 24 -7 11 -9 14 -22 9 -50 -7 -37 -11
-40 -79 -70 -40 -17 -73 -35 -73 -39 0 -12 94 -36 126 -32 71 8 138 56 149
105 5 21 11 29 21 25 9 -3 12 -1 9 4 -3 6 2 10 12 11 18 1 43 4 98 12 17 3 36
0 44 -7 12 -8 13 -8 7 2 -4 7 -1 12 8 12 9 0 16 -6 16 -12 0 -8 3 -9 8 -3 11
16 46 19 36 3 -6 -10 -5 -11 7 -1 16 13 36 12 57 0 6 -5 12 -4 12 2 0 7 8 7
27 0 14 -5 32 -8 40 -5 7 3 13 2 13 -2 0 -5 10 -8 23 -9 45 -2 168 -40 178
-55 3 -5 8 -9 10 -7 9 5 49 -13 49 -22 0 -6 4 -8 9 -4 5 3 15 -1 23 -8 7 -7
18 -15 23 -16 6 -2 9 -7 8 -12 -2 -4 3 -6 10 -3 7 2 25 -6 40 -20 14 -13 28
-21 31 -19 3 3 8 -2 12 -11 3 -9 13 -16 21 -16 8 0 11 -4 8 -10 -3 -5 -1 -10
4 -10 19 0 92 -80 85 -92 -4 -6 -3 -8 3 -5 10 6 50 -43 44 -52 -2 -2 4 -8 13
-13 9 -5 14 -13 11 -19 -4 -5 -2 -9 3 -9 16 0 64 -109 87 -200 17 -66 23 -221
11 -275 -3 -16 -8 -39 -10 -50 -15 -74 -91 -230 -138 -282 l-20 -22 23 -30
c13 -16 27 -30 32 -30 13 -1 52 -46 49 -56 -2 -5 0 -7 3 -3 4 4 17 2 29 -4 11
-6 18 -7 14 -3 -6 7 54 93 76 107 6 4 7 8 3 8 -5 0 0 12 11 28 11 15 23 37 26
50 4 12 12 20 17 17 5 -3 6 0 3 8 -3 8 2 21 10 30 8 8 13 17 10 19 -2 3 4 26
15 51 11 25 17 48 14 51 -4 3 -2 6 3 6 5 0 9 10 10 23 0 12 4 40 8 62 9 47 11
207 3 250 -45 255 -166 453 -370 608 -152 117 -315 184 -537 223 -37 6 -246
14 -252 9z"/>
<path d="M1050 1926 c0 -2 7 -7 16 -10 8 -3 12 -2 9 4 -6 10 -25 14 -25 6z"/>
<path d="M322 1797 c-36 -37 -39 -49 -17 -67 9 -7 14 -19 11 -27 -3 -8 -2 -11
4 -8 5 3 14 -5 21 -17 7 -13 15 -25 19 -28 4 -3 11 -13 17 -24 8 -14 3 -29
-23 -68 -19 -28 -34 -54 -34 -60 0 -5 -3 -7 -8 -4 -7 4 -159 10 -188 7 -10 -1
-34 -63 -54 -138 -12 -48 0 -86 24 -77 8 3 23 -3 33 -13 11 -11 24 -18 30 -16
6 2 18 -3 26 -12 9 -9 19 -15 22 -15 21 5 30 -39 26 -123 -1 -12 -28 -30 -86
-56 -47 -22 -85 -46 -85 -53 0 -7 12 -53 27 -101 l26 -88 84 5 c58 3 81 1 77
-6 -5 -7 -2 -8 7 -2 24 15 39 13 49 -7 6 -10 7 -19 3 -19 -4 0 0 -5 10 -11 9
-5 17 -15 17 -20 0 -6 -5 -7 -12 -3 -7 4 -8 3 -4 -5 4 -6 11 -9 16 -6 5 3 14
-3 19 -14 9 -16 2 -31 -39 -87 -28 -38 -50 -71 -50 -74 1 -10 29 -55 30 -47 0
5 20 -12 45 -37 25 -26 45 -43 45 -40 0 4 8 -1 19 -10 17 -16 21 -16 54 4 20
12 42 18 48 14 7 -4 9 -3 5 4 -3 6 2 16 13 21 26 14 34 14 25 -1 -4 -7 -3 -8
5 -4 6 4 9 11 7 15 -3 4 3 12 13 18 19 12 57 -7 43 -22 -4 -5 -2 -5 5 -2 15 9
45 -2 37 -14 -3 -5 2 -6 10 -3 9 3 16 1 16 -5 0 -6 7 -8 15 -5 17 7 18 6 15
-103 -1 -81 -1 -82 24 -89 14 -3 24 -9 22 -13 -2 -3 39 -5 92 -4 88 2 98 4
114 25 10 13 23 29 28 35 6 7 11 16 13 20 1 5 6 7 10 5 5 -1 6 2 3 7 -9 13 3
39 17 37 7 -1 18 -5 25 -10 7 -4 19 -2 27 4 11 9 15 9 15 1 0 -9 5 -9 20 -1
14 7 20 7 20 0 0 -5 5 -10 11 -10 5 0 7 5 4 10 -3 6 -2 10 3 10 14 0 33 -26
25 -33 -3 -4 -1 -7 5 -7 15 0 45 -58 37 -71 -4 -5 -1 -8 7 -7 7 2 12 -2 11 -7
-2 -13 157 -13 177 0 9 6 11 4 5 -6 -7 -11 -6 -12 7 -2 8 7 18 10 21 6 4 -3 7
-1 7 5 0 7 8 12 18 12 16 0 18 6 13 42 -3 24 -6 63 -6 88 0 41 3 46 40 67 22
13 45 21 52 18 7 -2 15 1 19 7 5 7 2 8 -7 4 -8 -4 -5 0 6 9 12 9 21 11 23 5 2
-5 8 -8 13 -4 5 3 9 -2 9 -10 0 -9 3 -15 8 -15 21 4 40 -3 58 -19 10 -10 24
-19 29 -20 38 -8 47 -14 34 -23 -9 -6 -10 -9 -2 -9 6 0 15 5 18 11 4 6 13 8
21 5 10 -4 14 0 12 12 -2 11 3 16 15 15 10 0 16 2 13 5 -3 3 0 12 6 20 13 15
-10 39 -142 152 -29 25 -58 50 -64 55 -6 6 -30 28 -54 49 l-43 39 -22 -21
c-56 -52 -189 -112 -292 -133 -385 -75 -757 182 -769 533 -2 43 1 78 6 78 5 0
7 4 3 9 -20 33 79 252 106 235 5 -3 6 2 3 10 -4 9 1 18 10 22 9 3 14 9 11 13
-2 4 5 14 16 21 10 8 19 20 19 26 0 6 -26 33 -57 60 -32 27 -62 54 -68 59 -31
33 -174 155 -182 155 -5 0 -23 -15 -41 -33z"/>
<path d="M975 1706 c-34 -8 -92 -28 -130 -45 l-69 -32 41 -39 c23 -21 53 -46
67 -55 13 -9 24 -22 22 -28 -1 -7 -1 -8 2 -4 2 4 11 2 19 -4 11 -10 14 -10 11
1 -2 8 2 14 7 15 6 0 15 4 22 8 6 4 14 1 16 -5 3 -8 6 -5 6 5 1 11 7 17 14 14
6 -2 11 -10 9 -16 -1 -7 2 -10 8 -6 6 3 8 10 5 15 -9 14 20 18 106 16 117 -3
206 -24 201 -46 -2 -7 3 -10 12 -7 17 7 92 -41 129 -82 32 -37 82 -126 91
-163 6 -26 -13 -58 -34 -58 -13 0 -50 -83 -50 -113 0 -32 23 -91 43 -111 7 -7
28 -21 45 -30 21 -11 30 -21 25 -29 -4 -7 1 -5 11 3 16 13 20 12 32 -5 12 -17
14 -17 14 -2 0 20 4 21 32 6 15 -8 19 -8 14 0 -5 7 2 11 18 11 14 0 26 5 26
11 0 8 6 7 18 -2 9 -7 14 -9 10 -5 -9 10 9 36 24 36 6 0 4 -8 -3 -18 -13 -15
-12 -16 3 -4 9 8 14 20 11 28 -3 8 -1 14 5 14 11 0 30 42 35 80 6 41 -11 86
-47 122 -21 21 -36 47 -39 68 -31 197 -188 363 -417 440 -84 28 -276 36 -365
16z m715 -567 c0 -5 6 -8 13 -6 6 1 11 -3 10 -10 -2 -7 6 -10 17 -8 16 3 19
-1 16 -18 -3 -12 -5 -33 -5 -47 -1 -21 -9 -29 -44 -42 -46 -17 -62 -13 -103
24 -22 20 -22 55 0 70 7 5 6 8 -3 8 -11 0 -11 3 -1 15 13 16 35 21 25 6 -3 -5
0 -13 7 -17 7 -4 10 -4 6 1 -10 10 11 37 23 29 5 -3 9 -1 9 5 0 6 7 8 15 5 8
-4 15 -10 15 -15z"/>
<path d="M1189 1523 c-13 -16 -12 -17 4 -4 9 7 17 15 17 17 0 8 -8 3 -21 -13z"/>
<path d="M1296 1498 c3 -5 10 -6 15 -3 13 9 11 12 -6 12 -8 0 -12 -4 -9 -9z"/>
<path d="M740 1465 c-13 -15 -5 -55 11 -55 6 0 7 -4 4 -10 -3 -5 -1 -10 4 -10
6 0 11 -5 11 -11 0 -5 -5 -7 -12 -3 -7 4 -8 3 -4 -4 4 -6 2 -20 -3 -30 -8 -16
-20 -19 -60 -18 l-50 2 -14 -40 c-15 -45 -13 -66 9 -66 8 0 14 -5 14 -12 0 -6
3 -8 6 -5 15 15 40 -13 40 -43 -1 -25 -8 -35 -41 -54 -23 -13 -38 -29 -36 -37
2 -8 4 -18 5 -24 11 -52 17 -56 67 -52 36 2 49 0 49 -10 0 -7 5 -13 11 -13 6
0 8 -7 5 -16 -3 -8 -2 -12 4 -9 16 10 11 -8 -10 -35 -26 -34 -25 -40 14 -82
26 -28 37 -33 46 -24 10 8 11 8 5 -4 -4 -8 2 -5 14 8 24 24 36 29 26 10 -4 -7
0 -5 9 6 13 17 19 17 46 6 30 -12 34 -19 30 -54 -4 -38 9 -65 30 -61 11 2 20
0 20 -4 0 -4 10 -7 23 -7 14 1 21 -4 19 -14 -1 -8 7 -4 18 10 11 14 20 31 20
38 0 7 7 15 15 18 8 4 12 10 9 15 -3 5 13 8 36 7 29 -1 39 -5 36 -15 -3 -7 0
-12 7 -10 7 1 11 -4 9 -10 -1 -7 3 -13 9 -13 6 0 8 -7 5 -16 -3 -8 -2 -12 4
-9 6 3 10 1 10 -6 0 -8 3 -9 14 0 7 6 31 12 54 14 l40 2 -2 44 c-2 46 16 76
41 67 8 -3 11 -1 8 4 -11 17 18 11 60 -13 l41 -23 17 22 c16 21 15 23 -6 37
-12 9 -44 36 -72 61 -27 25 -54 46 -58 46 -5 0 -21 -9 -36 -19 -79 -56 -229
-66 -323 -22 -94 45 -157 133 -162 228 -3 62 12 116 32 108 12 -4 12 -3 3 9
-10 11 -6 21 20 51 l32 36 -43 37 c-23 20 -56 49 -72 65 -34 31 -41 33 -58 12z"/>
<path d="M1325 800 c-3 -6 1 -7 9 -4 18 7 21 14 7 14 -6 0 -13 -4 -16 -10z"/>
<path d="M1410 800 c0 -5 5 -10 11 -10 5 0 7 5 4 10 -3 6 -8 10 -11 10 -2 0
-4 -4 -4 -10z"/>
<path d="M1114 762 c4 -3 14 -7 22 -8 9 -1 13 0 10 4 -4 3 -14 7 -22 8 -9 1
-13 0 -10 -4z"/>
</g>
</svg>
